<svg width="90" height="85" viewBox="0 0 90 85" fill="none" xmlns="http://www.w3.org/2000/svg">
<path d="M88.965 51.4824H59.1673C58.5958 51.4824 58.1323 51.946 58.1323 52.5174V66.7151C58.1323 67.2869 58.5958 67.7501 59.1673 67.7501H88.965C89.5368 67.7501 90 67.2869 90 66.7151V52.5174C90 51.9458 89.5368 51.4824 88.965 51.4824Z" fill="#726A99"/>
<path d="M88.965 71.8901H59.1673C58.5958 71.8901 58.1323 72.3533 58.1323 72.9251V79.0789C58.1323 81.9369 60.4492 84.2539 63.3073 84.2539H84.825C87.683 84.2539 90 81.9369 90 79.0789V72.9251C90 72.3535 89.5368 71.8901 88.965 71.8901ZM74.066 79.8695C73.0731 79.8695 72.2684 79.0646 72.2684 78.0722C72.2684 77.0794 73.0733 76.2748 74.066 76.2748C75.0588 76.2748 75.8635 77.0797 75.8635 78.0722C75.8637 79.0648 75.0588 79.8695 74.066 79.8695Z" fill="#726A99"/>
<path d="M87.5385 38.6101C86.7234 38.1062 85.7849 37.8398 84.8252 37.8398H63.3073C60.4492 37.8398 58.1323 40.1568 58.1323 43.0148V46.3072C58.1323 46.8787 58.5958 47.3422 59.1673 47.3422H88.965C89.5368 47.3422 90 46.8787 90 46.3072V43.0148C90 41.1966 89.0738 39.5462 87.5385 38.6101Z" fill="#726A99"/>
<path d="M53.9923 79.0789V64.922V59.252V52.5177C53.9923 51.9462 53.5291 51.4827 52.9573 51.4827H1.035C0.463535 51.4827 0 51.9462 0 52.5177V57.6772C0 61.6785 3.24369 64.9222 7.245 64.9222H32.8171L29.6346 78.0451H25.7033C23.9885 78.0451 22.5983 79.4354 22.5983 81.1501C22.5983 82.8649 23.9885 84.2551 25.7033 84.2551C26.9172 84.2551 53.3231 84.2551 53.8228 84.2551C54.5766 84.2551 55.0654 83.4808 54.7641 82.7898C54.2677 81.652 53.9923 80.3973 53.9923 79.0789Z" fill="#726A99"/>
<path d="M84.825 33.6999C85.7983 33.6999 86.7586 33.8535 87.6744 34.1495C88.3357 34.3633 89.0109 33.8523 89.0109 33.1573V7.245C89.0109 3.24369 85.7672 0 81.7659 0H7.245C3.24369 0 0 3.24369 0 7.245V46.3073C0 46.8788 0.463535 47.3423 1.035 47.3423H52.9573C53.5287 47.3423 53.9923 46.8788 53.9923 46.3073V43.0149C53.9923 37.8703 58.1627 33.6999 63.3073 33.6999H84.825Z" fill="#726A99"/>
</svg>
