<svg width="90" height="97" viewBox="0 0 90 97" fill="none" xmlns="http://www.w3.org/2000/svg">
<path d="M88.4668 1.13248C87.117 -0.0585562 85.1883 -0.336465 83.5564 0.424127L66.2342 8.49392C62.0342 10.4497 58.2835 13.2539 55.2202 16.7267L37.2439 37.1143C26.3658 34.517 14.445 37.854 6.52983 46.8306C3.53552 50.2261 1.41464 54.0939 0.148384 58.1518C-0.183853 59.2132 0.0501754 60.3708 0.766886 61.2192C1.4836 62.0696 2.58478 62.4938 3.68597 62.3475C12.1716 61.2234 21.0751 63.618 27.9998 69.7236C34.9245 75.8292 38.4182 84.3629 38.3639 92.9258C38.3576 94.0354 38.9176 95.0718 39.8496 95.6757C40.7815 96.2795 41.96 96.3673 42.9713 95.9055C46.8391 94.1398 50.408 91.553 53.3981 88.1554C61.3133 79.1788 63.1291 66.9341 59.1882 56.4634L77.1583 36.08C80.2236 32.603 82.5388 28.5284 83.9513 24.1111L89.7811 5.91334C90.3349 4.19992 89.8167 2.32352 88.4668 1.13248ZM73.1923 30.6744C70.2461 34.0176 65.1476 34.3373 61.8064 31.3911C58.4653 28.4448 58.1456 23.3463 61.0897 20.0052C64.0381 16.6619 69.1344 16.3422 72.4756 19.2885C75.821 22.2347 76.1386 27.3332 73.1923 30.6744Z" fill="#726A99"/>
</svg>
