<svg width="100" height="65" viewBox="0 0 100 65" fill="none" xmlns="http://www.w3.org/2000/svg">
<path d="M48.153 43.4649C45.9101 44.5387 44.958 47.2367 46.0318 49.4785C47.1047 51.7224 49.8026 52.6735 52.0444 51.5996C54.2873 50.5268 55.2384 47.8278 54.1656 45.585C53.0927 43.3432 50.3958 42.391 48.153 43.4649Z" fill="#726A99"/>
<path d="M50 0C22.4304 0 0 22.4294 0 49.999C0 53.734 0.427499 57.4996 1.27227 61.1876C1.75295 63.2862 3.62045 64.7753 5.77328 64.7753H94.2267C96.3785 64.7753 98.2481 63.2862 98.7277 61.1876C99.5715 57.4996 100 53.734 100 49.999C100 22.4294 77.5696 0 50 0ZM50 7.471C52.8964 7.471 55.2507 9.82634 55.2507 12.7207C55.2507 14.1228 54.7045 15.4411 53.7125 16.4331C52.7215 17.4242 51.4032 17.9703 50.002 17.9703C47.1077 17.9703 44.7514 15.615 44.7504 12.7207C44.7493 9.82532 47.1047 7.471 50 7.471ZM10.8296 57.1407C7.93532 57.1407 5.57999 54.7853 5.57999 51.891C5.57999 48.9967 7.93532 46.6414 10.8296 46.6414C13.725 46.6414 16.0803 48.9967 16.0803 51.891C16.0803 54.7853 13.725 57.1407 10.8296 57.1407ZM26.0151 27.9051C25.024 28.8971 23.7057 29.4432 22.3036 29.4432C20.9014 29.4432 19.5821 28.8971 18.5911 27.9051C17.6001 26.914 17.0539 25.5957 17.0539 24.1936C17.0539 22.7914 17.6001 21.4731 18.5921 20.4811C19.5842 19.489 20.9025 18.9429 22.3046 18.9429C23.7068 18.9429 25.0251 19.489 26.0161 20.4801C27.0081 21.4721 27.5543 22.7904 27.5543 24.1926C27.5543 25.5947 27.0071 26.914 26.0151 27.9051ZM55.2895 58.3782C49.3107 61.2408 42.1158 58.7024 39.2532 52.7225C36.3916 46.7416 34.9066 15.7817 34.9066 15.7817C34.9066 15.7817 58.0857 36.3599 60.9462 42.3388C63.8088 48.3227 61.2704 55.5166 55.2895 58.3782ZM81.411 27.9051C80.4179 28.8971 79.0996 29.4432 77.6974 29.4432C76.2953 29.4432 74.977 28.8971 73.986 27.9051C72.9939 26.914 72.4498 25.5957 72.4498 24.1936C72.4498 22.7914 72.995 21.4721 73.986 20.4811C74.977 19.4901 76.2953 18.9439 77.6974 18.9439C79.0996 18.9439 80.4179 19.4901 81.411 20.4821C82.403 21.4742 82.9471 22.7924 82.9491 24.1946C82.9471 25.5957 82.4009 26.914 81.411 27.9051ZM89.1704 57.1407C86.275 57.1407 83.9187 54.7853 83.9187 51.891C83.9187 48.9967 86.275 46.6414 89.1704 46.6414C92.0647 46.6414 94.42 48.9967 94.42 51.891C94.42 54.7853 92.0657 57.1407 89.1704 57.1407Z" fill="#726A99"/>
</svg>
