<svg width="90" height="94" viewBox="0 0 90 94" fill="none" xmlns="http://www.w3.org/2000/svg">
<path d="M36.0885 0C35.3654 0 34.718 0.156314 34.1496 0.472101C31.6912 0.958413 30.1154 2.5184 28.9517 3.66944C28.178 4.43522 27.5102 5.0968 26.9323 5.0968H26.9307C26.1886 5.04943 25.5081 5.02101 24.8812 5.02101C20.5992 5.02101 18.3618 6.5131 16.3345 10.7241C16.2681 10.8599 16.1955 10.9467 16.1276 11.0525H17.3529C22.5776 11.0525 26.8265 15.3014 26.8265 20.5261C26.8265 21.3993 26.1191 22.1051 25.2475 22.1051C24.376 22.1051 23.6686 21.3993 23.6686 20.5261C23.6686 17.043 20.836 14.2104 17.3529 14.2104H9.89873C6.0635 17.0493 3.69984 22.154 4.01089 27.295C4.16246 29.8024 3.48036 33.9186 2.25827 35.8181C-0.752757 40.5044 -0.752757 47.0506 2.25827 51.7369C2.72406 52.4601 3.40615 53.3016 4.19562 54.2774C5.60403 56.0174 7.96296 58.9274 7.88243 60.26C7.52401 66.1589 11.124 72.9562 15.9066 75.4114C16.7671 75.8535 16.9124 76.3004 17.2376 77.6535C17.2739 77.8004 17.3134 77.9598 17.3529 78.1209V76.1456C17.3529 70.0525 22.3107 65.0931 28.4054 65.0931C29.277 65.0931 29.9843 65.7989 29.9843 66.672C29.9843 67.5452 29.277 68.251 28.4054 68.251C24.0523 68.251 20.5107 71.7925 20.5107 76.1456V83.1845C21.3539 83.7672 22.2176 84.0987 22.9486 84.3766C24.4265 84.9371 25.0375 85.1708 25.2618 86.7908C25.8775 91.2529 28.5207 93.9181 32.3322 93.9181C37.9437 93.9181 44.1947 87.915 44.1947 79.3035V20.883C44.1947 21.7561 43.4874 22.4619 42.6158 22.4619C37.3911 22.4619 33.1422 26.7108 33.1422 31.9355C33.1422 38.9002 27.4754 44.567 20.5107 44.567C19.6392 44.567 18.9318 43.8612 18.9318 42.988C18.9318 42.1149 19.6392 41.4091 20.5107 41.4091C25.7354 41.4091 29.9843 37.1602 29.9843 31.9355C29.9843 24.9708 35.6511 19.304 42.6158 19.304C43.4874 19.304 44.1947 20.0098 44.1947 20.883V6.67257C44.1963 3.51628 39.3632 0 36.0885 0ZM31.5649 52.0795C31.5649 49.0259 32.7554 46.1538 34.9169 43.9938C35.5343 43.3765 36.5322 43.3765 37.1495 43.9938C37.7669 44.6112 37.7669 45.6091 37.1495 46.2264C35.5848 47.7912 34.7227 49.8706 34.7227 52.0795C34.7227 54.2885 35.5848 56.3679 37.1495 57.9327C37.7669 58.55 37.7669 59.5479 37.1495 60.1653C35.5848 61.73 34.7227 63.8094 34.7227 66.0184C34.7227 68.2273 35.5848 70.3068 37.1495 71.8715C37.7669 72.4888 37.7669 73.4867 37.1495 74.1041C36.8417 74.412 36.4374 74.5667 36.0332 74.5667C35.629 74.5667 35.2248 74.412 34.9169 74.1041C32.7554 71.9441 31.5649 69.0704 31.5649 66.0184C31.5649 63.4637 32.4096 61.0416 33.949 59.049C32.408 57.0595 31.5649 54.6358 31.5649 52.0795ZM20.2676 56.0221C20.2676 56.0237 20.2676 56.0237 20.2676 56.0221C19.6534 57.6911 20.5107 59.5495 22.1781 60.1637C22.996 60.4668 23.4144 61.3747 23.1112 62.1926C22.876 62.8289 22.2728 63.2237 21.6302 63.2237C21.4486 63.2237 21.2639 63.1921 21.0823 63.1258C17.7823 61.9052 16.0881 58.2295 17.3039 54.9295C17.3039 54.9279 17.3039 54.9264 17.3039 54.9264C17.9197 53.259 17.0624 51.4006 15.3934 50.7848C14.5755 50.4832 14.1571 49.5738 14.4603 48.7559C14.7618 47.938 15.6745 47.5227 16.4892 47.8212C19.7923 49.0448 21.4865 52.7222 20.2676 56.0221ZM23.1444 31.8266C22.1939 34.4018 19.7465 35.9997 17.1492 35.9997C16.4166 35.9997 15.6729 35.8718 14.9466 35.6049C13.2745 34.9844 11.4208 35.8449 10.8035 37.5139C10.5682 38.1502 9.96504 38.5449 9.32242 38.5449C9.14084 38.5449 8.95611 38.5133 8.77611 38.447C7.95822 38.1455 7.5398 37.236 7.84138 36.4181C9.05874 33.1181 12.7392 31.4287 16.0392 32.6397C17.705 33.2571 19.565 32.4013 20.1823 30.7308C20.4839 29.9129 21.3949 29.4961 22.2113 29.7961C23.0291 30.0992 23.4476 31.0087 23.1444 31.8266Z" fill="#726A99"/>
<path d="M87.7417 35.4613C86.5212 33.5634 85.8375 29.444 85.9907 26.9382C86.3017 21.7956 83.9381 16.6925 80.1028 13.8536H72.6471C70.0356 13.8536 67.9103 15.9788 67.9103 18.5904C67.9103 19.4635 67.2029 20.1693 66.3314 20.1693C65.4598 20.1693 64.7524 19.4635 64.7524 18.5904C64.7524 14.2372 68.294 10.6957 72.6471 10.6957H73.8724C73.8045 10.5899 73.7318 10.5031 73.6671 10.3689C71.6413 6.15784 69.404 4.66575 65.1219 4.66575C64.4951 4.66575 63.8146 4.69417 63.0377 4.74312C62.594 4.74312 61.904 4.0026 61.2346 3.28892C60.0646 2.0384 58.5014 0.364734 56.0241 0.0805256L55.2267 0C50.1205 0 45.8052 2.89261 45.8052 6.31573V78.9467C45.8052 87.5582 52.0562 93.5597 57.6678 93.5613C57.6678 93.5613 57.6678 93.5613 57.6693 93.5613C61.4793 93.5613 64.1209 90.8961 64.7382 86.434C64.9624 84.814 65.5735 84.5803 67.0514 84.0198C67.7824 83.7419 68.6461 83.4103 69.4892 82.8277V75.7888C69.4892 71.4357 65.9477 67.8941 61.5946 67.8941C60.723 67.8941 60.0156 67.1884 60.0156 66.3152C60.0156 65.4421 60.723 64.7363 61.5946 64.7363C67.6893 64.7363 72.6471 69.6957 72.6471 75.7888V77.7656C72.6882 77.6046 72.7276 77.4451 72.764 77.2967C73.0908 75.9451 73.2345 75.4951 74.095 75.0546C78.876 72.5994 82.476 65.8052 82.1191 59.9032C82.1049 59.6568 82.1949 59.3426 82.326 59.0047L77.6129 53.5369C75.8808 50.6632 72.8445 48.9469 69.4892 48.9469C62.5246 48.9469 56.8578 43.2801 56.8578 36.3155C56.8578 35.4423 57.5651 34.7365 58.4367 34.7365C59.3083 34.7365 60.0156 35.4423 60.0156 36.3155C60.0156 41.5402 64.2645 45.7891 69.4892 45.7891C73.915 45.7891 77.9255 48.0296 80.2449 51.7906L84.0328 56.18C84.6391 55.359 85.2865 54.56 85.8044 53.919C86.5938 52.9448 87.2759 52.1032 87.7417 51.3801C90.7527 46.6938 90.7527 40.1475 87.7417 35.4613ZM57.213 48.9138C61.3783 53.0806 61.3783 59.8605 57.213 64.0258C55.7904 65.4484 55.0057 67.3399 55.0057 69.3483C55.0057 71.3567 55.7904 73.2483 57.213 74.6709C57.8304 75.2883 57.8304 76.2862 57.213 76.9035C56.9051 77.213 56.5009 77.3677 56.0967 77.3677C55.6925 77.3677 55.2883 77.213 54.9804 76.9051C52.961 74.8857 51.8478 72.2015 51.8478 69.3499C51.8478 66.4984 52.961 63.8142 54.9804 61.7947C57.9141 58.8595 57.9141 54.0832 54.9804 51.148C54.3631 50.5306 54.3631 49.5327 54.9804 48.9154C55.5978 48.298 56.5973 48.298 57.213 48.9138ZM76.0592 37.0102C75.4371 37.1176 74.8181 37.1728 74.2071 37.1728C69.1166 37.1728 64.5961 33.5144 63.6851 28.3324C63.3361 26.3508 62.2388 24.6235 60.5935 23.4693C58.9467 22.3166 56.9509 21.8682 54.9678 22.2219C54.1073 22.364 53.2894 21.7972 53.1394 20.9382C52.9878 20.0793 53.5625 19.2598 54.4215 19.1098C57.2367 18.6188 60.0709 19.2472 62.4061 20.8846C64.7414 22.5219 66.2998 24.974 66.794 27.7861C67.5108 31.8739 71.425 34.6213 75.5113 33.8981C76.375 33.7481 77.1897 34.3229 77.3397 35.1818C77.4929 36.0407 76.9181 36.8602 76.0592 37.0102Z" fill="#726A99"/>
</svg>
