<svg width="301" height="31" viewBox="0 0 301 31" fill="none" xmlns="http://www.w3.org/2000/svg">
<path d="M9.024 23.2C11.1147 23.1787 12.9173 22.7307 14.432 21.856C15.968 20.96 17.152 19.6907 17.984 18.048C18.816 16.4053 19.232 14.4533 19.232 12.192C19.232 10.1227 18.848 8.288 18.08 6.688C17.3333 5.06667 16.2133 3.78667 14.72 2.848C13.2267 1.90933 11.3493 1.44 9.088 1.44H0V23.2H9.024ZM9.024 5.504C10.1547 5.504 11.0827 5.78133 11.808 6.336C12.5547 6.89067 13.1093 7.66933 13.472 8.672C13.856 9.67467 14.048 10.848 14.048 12.192C14.048 13.8133 13.824 15.136 13.376 16.16C12.928 17.184 12.3093 17.9413 11.52 18.432C10.7307 18.9013 9.81333 19.136 8.768 19.136H4.992V5.504H9.024Z" fill="#241B1C"/>
<path d="M25.6903 18.336C25.6903 17.888 25.8503 17.4933 26.1702 17.152C26.4902 16.8107 26.9276 16.64 27.4823 16.64H29.9143V18.56C29.4876 18.944 29.0396 19.2427 28.5702 19.456C28.1009 19.648 27.6423 19.744 27.1943 19.744C26.9169 19.744 26.6609 19.68 26.4263 19.552C26.2129 19.424 26.0316 19.2533 25.8822 19.04C25.7542 18.8267 25.6903 18.592 25.6903 18.336ZM23.4503 12.48C24.0263 12.2027 24.7089 11.968 25.4982 11.776C26.2876 11.584 27.0023 11.488 27.6423 11.488C28.2609 11.488 28.7622 11.6693 29.1462 12.032C29.5516 12.3733 29.7862 12.8747 29.8503 13.536L29.8822 13.632H27.4503C25.6796 13.632 24.2396 14.016 23.1302 14.784C22.0209 15.5307 21.4662 16.7253 21.4662 18.368C21.4662 19.9253 21.9356 21.184 22.8743 22.144C23.8129 23.104 25.2423 23.584 27.1623 23.584C27.8876 23.584 28.5703 23.4027 29.2103 23.04C29.8503 22.6773 30.4369 22.1867 30.9703 21.568L32.1543 23.2H34.9383V13.312C34.9383 12.096 34.6609 11.0293 34.1063 10.112C33.5729 9.19467 32.8049 8.48 31.8022 7.968C30.8209 7.456 29.6689 7.2 28.3463 7.2C27.7063 7.2 26.9809 7.264 26.1702 7.392C25.3809 7.52 24.6236 7.69067 23.8983 7.904C23.1943 8.11733 22.5969 8.36267 22.1063 8.64L23.4503 12.48Z" fill="#241B1C"/>
<path d="M43.1577 23.2V12.608C43.4991 12.416 43.8724 12.2133 44.2778 12C44.7044 11.7867 45.1311 11.616 45.5578 11.488C46.0058 11.3387 46.4218 11.264 46.8058 11.264C47.4671 11.264 47.9578 11.488 48.2778 11.936C48.5978 12.3627 48.7578 12.9493 48.7578 13.696V23.2H53.7498V13.344C53.7498 12.1707 53.5684 11.1253 53.2057 10.208C52.8644 9.26933 52.2991 8.53333 51.5098 8C50.7204 7.44533 49.6431 7.168 48.2778 7.168C47.5738 7.168 46.8591 7.264 46.1338 7.456C45.4298 7.648 44.7257 7.91467 44.0218 8.256C43.3391 8.576 42.6991 8.928 42.1017 9.312L41.2378 7.68H38.1338V23.2H43.1577Z" fill="#241B1C"/>
<path d="M60.6575 23.584C60.5295 23.968 60.2308 24.32 59.7615 24.64C59.3135 24.9813 58.8015 25.28 58.2255 25.536C57.6708 25.8133 57.1482 26.0587 56.6575 26.272L58.3855 30.272C59.3455 30.0373 60.2735 29.6747 61.1695 29.184C62.0868 28.7147 62.8975 28.128 63.6015 27.424C64.3055 26.72 64.8282 25.9627 65.1695 25.152L72.0495 7.68H66.9295L63.7615 16.768L60.3695 7.104L55.6335 8.48L61.1055 22.528L60.6575 23.584Z" fill="#241B1C"/>
<path d="M79.064 23.2V7.68H74.04V23.2H79.064ZM76.536 5.536C77.304 5.536 77.9547 5.26933 78.488 4.736C79.0427 4.18133 79.32 3.53067 79.32 2.784C79.32 2.016 79.0427 1.36533 78.488 0.831999C77.9333 0.277333 77.2827 0 76.536 0C75.7893 0 75.1387 0.277333 74.584 0.831999C74.0507 1.36533 73.784 2.016 73.784 2.784C73.784 3.53067 74.0507 4.18133 74.584 4.736C75.1387 5.26933 75.7893 5.536 76.536 5.536Z" fill="#241B1C"/>
<path d="M87.6957 23.2V0.608L82.7038 0.959999V23.2H87.6957Z" fill="#241B1C"/>
<path d="M110.766 16.512L114.285 11.68V23.2H119.278V1.44H116.077L109.71 10.592L102.766 1.44H99.4375V23.2H104.429V11.328L108.782 16.768L110.766 16.512Z" fill="#241B1C"/>
<path d="M127.346 18.336C127.346 17.888 127.507 17.4933 127.826 17.152C128.146 16.8107 128.584 16.64 129.139 16.64H131.57V18.56C131.144 18.944 130.696 19.2427 130.227 19.456C129.757 19.648 129.298 19.744 128.85 19.744C128.573 19.744 128.317 19.68 128.083 19.552C127.869 19.424 127.688 19.2533 127.538 19.04C127.41 18.8267 127.346 18.592 127.346 18.336ZM125.106 12.48C125.682 12.2027 126.365 11.968 127.155 11.776C127.944 11.584 128.658 11.488 129.298 11.488C129.917 11.488 130.419 11.6693 130.803 12.032C131.208 12.3733 131.443 12.8747 131.507 13.536L131.538 13.632H129.107C127.336 13.632 125.896 14.016 124.786 14.784C123.677 15.5307 123.122 16.7253 123.122 18.368C123.122 19.9253 123.592 21.184 124.531 22.144C125.469 23.104 126.898 23.584 128.818 23.584C129.544 23.584 130.227 23.4027 130.867 23.04C131.507 22.6773 132.093 22.1867 132.626 21.568L133.811 23.2H136.594V13.312C136.594 12.096 136.317 11.0293 135.762 10.112C135.229 9.19467 134.461 8.48 133.458 7.968C132.477 7.456 131.325 7.2 130.003 7.2C129.363 7.2 128.637 7.264 127.826 7.392C127.037 7.52 126.28 7.69067 125.554 7.904C124.85 8.11733 124.253 8.36267 123.762 8.64L125.106 12.48Z" fill="#241B1C"/>
<path d="M144.814 23.2V12.608C145.155 12.416 145.518 12.2133 145.902 12C146.307 11.7867 146.702 11.616 147.086 11.488C147.491 11.3387 147.865 11.264 148.206 11.264C148.675 11.264 149.027 11.3707 149.262 11.584C149.518 11.776 149.689 12.0533 149.774 12.416C149.859 12.7787 149.902 13.2053 149.902 13.696V23.2H154.926V13.024C154.926 11.8507 154.755 10.8267 154.414 9.952C154.094 9.07733 153.55 8.39467 152.782 7.904C152.035 7.41333 151.011 7.168 149.71 7.168C149.07 7.168 148.398 7.264 147.694 7.456C146.99 7.648 146.307 7.91467 145.646 8.256C144.985 8.576 144.355 8.928 143.758 9.312L142.894 7.68H139.79V23.2H144.814ZM154.894 12.608C155.235 12.416 155.598 12.2133 155.982 12C156.387 11.7867 156.793 11.616 157.198 11.488C157.603 11.3387 157.966 11.264 158.286 11.264C158.755 11.264 159.107 11.3707 159.342 11.584C159.598 11.776 159.769 12.0533 159.854 12.416C159.961 12.7787 160.014 13.2053 160.014 13.696V23.2H165.006V13.024C165.006 11.8507 164.835 10.8267 164.494 9.952C164.174 9.07733 163.63 8.39467 162.862 7.904C162.094 7.41333 161.059 7.168 159.758 7.168C159.139 7.168 158.478 7.264 157.774 7.456C157.091 7.648 156.409 7.91467 155.726 8.256C155.065 8.576 154.435 8.928 153.838 9.312L154.894 12.608Z" fill="#241B1C"/>
<path d="M182.596 16.8V15.296C182.596 13.824 182.33 12.48 181.796 11.264C181.284 10.0267 180.484 9.04533 179.396 8.32C178.33 7.57333 176.975 7.2 175.332 7.2C173.754 7.2 172.356 7.54133 171.14 8.224C169.924 8.88533 168.964 9.83467 168.26 11.072C167.578 12.288 167.236 13.7493 167.236 15.456C167.236 17.1413 167.599 18.592 168.324 19.808C169.071 21.024 170.127 21.9627 171.492 22.624C172.879 23.264 174.511 23.584 176.388 23.584C177.263 23.584 178.084 23.4987 178.852 23.328C179.62 23.1787 180.314 22.9653 180.932 22.688C181.572 22.4107 182.106 22.112 182.532 21.792L181.124 18.304C180.548 18.624 179.898 18.912 179.172 19.168C178.468 19.4027 177.658 19.52 176.74 19.52C175.887 19.52 175.183 19.4133 174.628 19.2C174.074 18.9653 173.636 18.6453 173.316 18.24C172.996 17.8347 172.772 17.3547 172.644 16.8H182.596ZM172.58 13.952C172.644 13.3973 172.794 12.928 173.028 12.544C173.263 12.16 173.572 11.8613 173.956 11.648C174.34 11.4347 174.756 11.328 175.204 11.328C175.716 11.328 176.154 11.4453 176.516 11.68C176.879 11.9147 177.167 12.224 177.38 12.608C177.615 12.992 177.764 13.44 177.828 13.952H172.58Z" fill="#241B1C"/>
<path d="M190.001 23.2V12.608C190.343 12.416 190.716 12.2133 191.122 12C191.548 11.7867 191.975 11.616 192.402 11.488C192.85 11.3387 193.266 11.264 193.65 11.264C194.311 11.264 194.801 11.488 195.122 11.936C195.441 12.3627 195.602 12.9493 195.602 13.696V23.2H200.594V13.344C200.594 12.1707 200.412 11.1253 200.049 10.208C199.708 9.26933 199.143 8.53333 198.354 8C197.564 7.44533 196.487 7.168 195.122 7.168C194.418 7.168 193.703 7.264 192.977 7.456C192.273 7.648 191.569 7.91467 190.865 8.256C190.183 8.576 189.543 8.928 188.945 9.312L188.081 7.68H184.977V23.2H190.001Z" fill="#241B1C"/>
<path d="M213.165 8.032H209.709V3.296L204.717 4.064V8.032H202.477V11.904H204.717V17.792C204.717 19.072 205.016 20.16 205.613 21.056C206.232 21.9307 207.043 22.592 208.045 23.04C209.048 23.488 210.189 23.712 211.469 23.712C211.875 23.712 212.323 23.648 212.813 23.52C213.304 23.4133 213.763 23.2747 214.189 23.104C214.616 22.912 214.947 22.72 215.181 22.528L213.741 19.04C213.4 19.2107 213.059 19.3387 212.717 19.424C212.376 19.488 212.056 19.52 211.757 19.52C211.117 19.52 210.616 19.3067 210.253 18.88C209.891 18.432 209.709 17.8453 209.709 17.12V11.904H214.061L213.165 8.032Z" fill="#241B1C"/>
<path d="M224.779 23.552C223.094 23.552 221.611 23.2427 220.331 22.624C219.051 22.0053 218.049 21.088 217.324 19.872C216.62 18.6347 216.268 17.152 216.268 15.424C216.289 13.696 216.662 12.224 217.387 11.008C218.134 9.792 219.148 8.85333 220.428 8.192C221.729 7.53067 223.201 7.2 224.844 7.2C226.529 7.2 228.012 7.52 229.292 8.16C230.572 8.8 231.574 9.73867 232.299 10.976C233.025 12.192 233.387 13.6853 233.387 15.456C233.387 17.1413 233.014 18.592 232.268 19.808C231.521 21.024 230.497 21.952 229.195 22.592C227.915 23.232 226.443 23.552 224.779 23.552ZM224.811 19.424C225.515 19.424 226.113 19.264 226.604 18.944C227.115 18.6027 227.51 18.1333 227.788 17.536C228.065 16.9387 228.204 16.2453 228.204 15.456C228.204 14.6667 228.065 13.9627 227.788 13.344C227.532 12.7253 227.147 12.2453 226.635 11.904C226.145 11.5413 225.558 11.36 224.876 11.36C224.193 11.36 223.585 11.5307 223.051 11.872C222.54 12.2133 222.145 12.6827 221.867 13.28C221.59 13.8773 221.452 14.592 221.452 15.424C221.452 16.192 221.59 16.8853 221.867 17.504C222.145 18.1013 222.529 18.5707 223.02 18.912C223.531 19.2533 224.129 19.424 224.811 19.424Z" fill="#241B1C"/>
<path d="M244.815 23.2L250.927 7.68H245.839L242.671 16.768L239.311 7.104L234.575 8.48L240.271 23.2H244.815Z" fill="#241B1C"/>
<path d="M256.595 23.584C256.467 23.968 256.168 24.32 255.699 24.64C255.251 24.9813 254.739 25.28 254.163 25.536C253.608 25.8133 253.086 26.0587 252.595 26.272L254.323 30.272C255.283 30.0373 256.211 29.6747 257.107 29.184C258.024 28.7147 258.835 28.128 259.539 27.424C260.243 26.72 260.766 25.9627 261.107 25.152L267.987 7.68H262.867L259.699 16.768L256.307 7.104L251.571 8.48L257.043 22.528L256.595 23.584Z" fill="#241B1C"/>
<path d="M281.337 18.464C280.655 18.8053 280.025 19.0507 279.449 19.2C278.895 19.3493 278.319 19.424 277.721 19.424C277.081 19.424 276.484 19.264 275.93 18.944C275.396 18.6027 274.97 18.144 274.65 17.568C274.351 16.9707 274.202 16.2667 274.202 15.456C274.202 14.624 274.351 13.9093 274.65 13.312C274.97 12.6933 275.396 12.2133 275.93 11.872C276.484 11.5307 277.081 11.36 277.721 11.36C278.362 11.36 278.948 11.4347 279.482 11.584C280.036 11.7333 280.655 11.968 281.337 12.288L282.746 8.8C282.191 8.37333 281.572 8.05333 280.889 7.84C280.228 7.60533 279.588 7.44533 278.97 7.36C278.351 7.25333 277.828 7.2 277.401 7.2C275.737 7.2 274.276 7.54133 273.017 8.224C271.759 8.88533 270.777 9.83467 270.073 11.072C269.391 12.288 269.039 13.7493 269.017 15.456C269.017 17.1413 269.369 18.592 270.073 19.808C270.777 21.024 271.759 21.952 273.017 22.592C274.276 23.232 275.737 23.552 277.401 23.552C277.849 23.552 278.383 23.5093 279.001 23.424C279.62 23.36 280.26 23.2107 280.922 22.976C281.604 22.7413 282.212 22.4107 282.746 21.984L281.337 18.464Z" fill="#241B1C"/>
<path d="M290.164 12.608C290.527 12.416 290.911 12.2133 291.316 12C291.722 11.7867 292.148 11.616 292.596 11.488C293.044 11.3387 293.45 11.264 293.812 11.264C294.495 11.264 294.986 11.488 295.285 11.936C295.605 12.3627 295.764 12.9493 295.764 13.696V23.2H300.789V13.344C300.789 12.1707 300.607 11.1253 300.245 10.208C299.903 9.26933 299.327 8.53333 298.517 8C297.727 7.44533 296.66 7.168 295.316 7.168C294.612 7.168 293.898 7.264 293.172 7.456C292.447 7.648 291.733 7.91467 291.029 8.256C290.346 8.576 289.716 8.928 289.141 9.312L290.164 12.608ZM290.164 23.2V0.608L285.172 0.959999V23.2H290.164Z" fill="#241B1C"/>
</svg>
