<svg width="40" height="40" viewBox="0 0 40 40" fill="none" xmlns="http://www.w3.org/2000/svg">
<g clip-path="url(#clip0_21_35)">
<path d="M20.0013 -3.99872C8.95181 -3.99872 0 5.18629 0 16.5064C0 25.5709 5.73036 33.2539 13.6721 35.9645C14.6759 36.158 15.0384 35.5236 15.0384 34.9751C15.0384 34.4881 15.0272 33.2001 15.0197 31.4905C9.45309 32.7259 8.28052 28.7338 8.28052 28.7338C7.36921 26.3706 6.05413 25.7362 6.05413 25.7362C4.24402 24.4688 6.19789 24.4957 6.19789 24.4957C8.20301 24.6354 9.25808 26.6039 9.25808 26.6039C11.0419 29.7412 13.9384 28.8338 15.0847 28.3058C15.2597 26.9845 15.781 26.0759 16.3485 25.5696C11.9082 25.0557 7.2392 23.2936 7.2392 15.4363C7.2392 13.1922 8.01425 11.3647 9.29558 9.92937C9.07432 9.41547 8.39678 7.32651 9.47184 4.50193C9.47184 4.50193 11.1457 3.9547 14.9722 6.60498C16.5735 6.15003 18.2736 5.92319 19.9725 5.91166C21.6726 5.92319 23.3715 6.15131 24.9728 6.60498C28.7768 3.9547 30.4494 4.50193 30.4494 4.50193C31.5232 7.32651 30.8457 9.41418 30.6507 9.92937C31.9195 11.3647 32.6945 13.1935 32.6945 15.4363C32.6945 23.3115 28.0193 25.048 23.574 25.5491C24.269 26.163 24.9203 27.4254 24.9203 29.3413C24.9203 32.0839 24.8953 34.2933 24.8953 34.961C24.8953 35.4941 25.2453 36.1349 26.2754 35.9286C34.2759 33.2462 40 25.5568 40 16.5051C40 5.18501 31.0482 -4 19.9988 -4L20.0013 -3.99872Z" fill="#436206"/>
<path d="M0 0V20L5.5 4.5L20 0H0Z" fill="#436206" stroke="#436206"/>
<path d="M0 40V21L7 31L13 36H28L40 20L34.5 4L20 0H40V20V40H25H14.5H0Z" fill="#436206"/>
<path d="M40 20V40H25M40 20V0H20L34.5 4L40 20ZM40 20L28 36M25 40H14.5M25 40L28 36M14.5 40H0V21L7 31L13 36M14.5 40L28 36M14.5 40L13 36M28 36H13" stroke="#436206"/>
</g>
<defs>
<clipPath id="clip0_21_35">
<rect width="40" height="40" fill="white"/>
</clipPath>
</defs>
</svg>
